<svg xmlns="http://www.w3.org/2000/svg" width="200" height="200"><rect x="3.843" y="15.663" fill="#E6552A" width="189.815" height="112.228"/><path fill="#D8D1B6" d="M124.792 172.291c-1.952-5.167-1.564-11.705-1.682-17.062h-46.219c-.118 5.356.269 11.895-1.682 17.062-1.281 3.392-10.428 11-11.972 12.275h73.526c-1.543-1.275-10.69-8.883-11.971-12.275z"/><rect x="63.138" y="184.566" fill="#EEEBDD" width="73.724" height="2.551"/><path fill="#EEEBDD" d="M0 148.938c0 3.698 3.082 6.802 6.78 6.802h186.651c3.698 0 6.568-3.104 6.568-6.802v-15.394h-199.999v15.394z"/><path fill="#481D0E" d="M193.432 12.883h-186.652c-3.698 0-6.78 2.79-6.78 6.488v114.174h200v-114.174c0-3.698-2.87-6.488-6.568-6.488zm-93.466 4.12c.478 0 .865.388.865.865s-.387.865-.865.865-.865-.388-.865-.865.387-.865.865-.865zm90.341 107.103h-181.123v-101.53h181.123v101.53z"/></svg>