<svg xmlns="http://www.w3.org/2000/svg" width="200" height="200"><g><rect x="7.105" y="29.505" fill="#E6552A" width="190.796" height="141.259"/><path fill="#481D0E" d="M200 31.322c0-5.397-4.375-9.773-9.772-9.773h-180.455c-5.397 0-9.773 4.376-9.773 9.773v137.355c0 5.396 4.376 9.773 9.773 9.773h180.454c5.397 0 9.772-4.377 9.772-9.773v-137.355zm-189.497 69.616c-.907 0-1.643-.735-1.643-1.642s.735-1.642 1.643-1.642c.905 0 1.642.735 1.642 1.642s-.737 1.642-1.642 1.642zm169.643 59.111h-161.259v-121.067h161.259v121.067zm10.854-55.033c-3.158 0-5.72-2.561-5.72-5.719 0-3.159 2.562-5.72 5.72-5.72 3.16 0 5.719 2.561 5.719 5.72 0 3.158-2.559 5.719-5.719 5.719z"/></g></svg>