<svg xmlns="http://www.w3.org/2000/svg" width="200" height="200"><g><rect x="10.346" y="54.415" fill="#E6552A" width="184.046" height="92.595"/><path fill="#481D0E" d="M200 62.739c0-7.743-6.275-14.02-14.021-14.02h-171.958c-7.744 0-14.021 6.277-14.021 14.02v74.523c0 7.743 6.277 14.02 14.021 14.02h171.959c7.745 0 14.021-6.276 14.021-14.02v-74.523zm-180.342 45.073c0 .878-.711 1.59-1.589 1.59h-.24c-.878 0-1.59-.712-1.59-1.59v-14.77c0-.877.712-1.588 1.59-1.588h.24c.878 0 1.589.71 1.589 1.588v14.77zm-1.929 12.318c-1.601 0-2.897-1.298-2.897-2.898s1.297-2.896 2.897-2.896c1.602 0 2.898 1.297 2.898 2.896 0 1.6-1.297 2.898-2.898 2.898zm148.084 25.169h-132.479v-89.743h132.479v89.743zm17.371-35.265c-5.575 0-10.096-4.521-10.096-10.096s4.521-10.096 10.096-10.096 10.095 4.521 10.095 10.096c-.001 5.576-4.52 10.096-10.095 10.096z"/></g></svg>