<svg xmlns="http://www.w3.org/2000/svg" width="200" height="200"><g><rect x="52.99" y="10.346" fill="#E6552A" width="92.595" height="184.046"/><path fill="#481D0E" d="M137.261 200c7.743 0 14.021-6.275 14.021-14.021v-171.958c0-7.743-6.276-14.021-14.02-14.021h-74.524c-7.743 0-14.02 6.277-14.02 14.021v171.959c0 7.745 6.276 14.021 14.02 14.021h74.523zm-45.073-180.342c-.878 0-1.59-.711-1.59-1.589v-.24c0-.878.712-1.59 1.59-1.59h14.771c.878 0 1.588.712 1.588 1.59v.24c0 .878-.71 1.589-1.588 1.589h-14.771zm-12.318-1.929c0-1.601 1.298-2.897 2.898-2.897s2.896 1.297 2.896 2.897c0 1.602-1.297 2.898-2.896 2.898-1.6 0-2.898-1.297-2.898-2.898zm-25.169 148.084v-132.479h89.743v132.479h-89.743zm35.265 17.371c0-5.575 4.521-10.096 10.096-10.096s10.095 4.521 10.095 10.096-4.521 10.095-10.095 10.095c-5.576-.001-10.096-4.52-10.096-10.095z"/></g></svg>