<svg xmlns="http://www.w3.org/2000/svg" width="200" height="200"><g><rect x="30.284" y="35.535" fill="#E6552A" width="136.679" height="100.297"/><path fill="#481D0E" d="M174.026 39.226c0-3.994-3.237-7.23-7.231-7.23h-133.673c-3.994 0-7.23 3.237-7.23 7.23v101.555c0 3.994 3.236 7.232 7.23 7.232h133.673c3.994 0 7.231-3.238 7.231-7.232v-101.555zm-73.913-1.16c.671 0 1.215.544 1.215 1.214 0 .671-.544 1.215-1.215 1.215s-1.215-.544-1.215-1.215c0-.67.544-1.214 1.215-1.214zm59.493 96.51h-118.967v-89.471h118.968v89.471z"/><path fill="#EEEBDD" d="M0 155.223v5.551c0 3.994 3.386 7.23 7.379 7.23h185.391c3.994 0 7.148-3.236 7.148-7.23v-5.551h-199.918z"/><polygon fill="#D8D1B6" points="200,155.223 0.147,155.223 26.012,137.525 174.138,137.525"/></g></svg>